<svg id="Companies_-_MasterCard" data-name="Companies - MasterCard" xmlns="http://www.w3.org/2000/svg" width="33" height="20" viewBox="0 0 33 20">
  <path id="Caminho_757" data-name="Caminho 757" d="M81.962,2.139H73.039V17.861h8.923Z" transform="translate(-61)" fill="#ff5f00"/>
  <path id="Caminho_758" data-name="Caminho 758" d="M73.6,10a9.957,9.957,0,0,1,3.881-7.861A10.261,10.261,0,0,0,71.2,0,10.094,10.094,0,0,0,61,10,10.094,10.094,0,0,0,71.2,20a10.262,10.262,0,0,0,6.288-2.139A9.916,9.916,0,0,1,73.6,10Z" transform="translate(-61)" fill="#eb001b"/>
  <path id="Caminho_759" data-name="Caminho 759" d="M94,10A10.094,10.094,0,0,1,83.8,20a10.261,10.261,0,0,1-6.288-2.139,9.9,9.9,0,0,0,0-15.722A10.261,10.261,0,0,1,83.8,0,10.112,10.112,0,0,1,94,10Z" transform="translate(-61)" fill="#f79e1b"/>
</svg>
