<svg xmlns="http://www.w3.org/2000/svg" width="40.484" height="36.736" viewBox="0 0 40.484 36.736">
  <g id="ic-contact-chat" transform="translate(1.5 1.5)">
    <path id="Caminho_76" data-name="Caminho 76" d="M5.748,3H24.49a3.748,3.748,0,0,1,3.748,3.748V17.994a3.748,3.748,0,0,1-3.748,3.748H18.868l-5.623,5.623L7.623,21.742H5.748A3.748,3.748,0,0,1,2,17.994V6.748A3.748,3.748,0,0,1,5.748,3Z" transform="translate(-2 -3)" fill="none" stroke="#000" stroke-linecap="round" stroke-linejoin="round" stroke-width="3"/>
    <path id="Caminho_77" data-name="Caminho 77" d="M22.994,8h7.5a3.748,3.748,0,0,1,3.748,3.748V22.994a3.748,3.748,0,0,1-3.748,3.748H26.742l-3.748,5.623-5.623-5.623H11.748A3.748,3.748,0,0,1,8,22.994H8" transform="translate(3.245 1.371)" fill="none" stroke="#000" stroke-linecap="round" stroke-linejoin="round" stroke-width="3"/>
  </g>
</svg>
