<svg xmlns="http://www.w3.org/2000/svg" width="43.953" height="36.778" viewBox="0 0 43.953 36.778">
  <g id="ic-ecommerce-house" transform="translate(1.519 1.5)">
    <path id="Caminho_139" data-name="Caminho 139" d="M1.119,17.45,6.554,3H36.279a.412.412,0,0,1,.356.244l5.341,14.244a.375.375,0,0,1-.356.506H32.793L27.17,14.245l-5.623,3.748-5.623-3.748L10.3,17.994H1.475a.375.375,0,0,1-.356-.544Z" transform="translate(-1.078 -3)" fill="none" stroke="#000" stroke-linecap="round" stroke-linejoin="round" stroke-width="3"/>
    <line id="Linha_122" data-name="Linha 122" x2="0.056" y2="18.817" transform="translate(5.419 14.956)" fill="none" stroke="#000" stroke-linecap="round" stroke-linejoin="round" stroke-width="3"/>
    <line id="Linha_123" data-name="Linha 123" x2="0.056" y2="18.742" transform="translate(35.463 14.956)" fill="none" stroke="#000" stroke-linecap="round" stroke-linejoin="round" stroke-width="3"/>
    <line id="Linha_124" data-name="Linha 124" x1="37.484" y2="0.075" transform="translate(1.727 33.698)" fill="none" stroke="#000" stroke-linecap="round" stroke-linejoin="round" stroke-width="3"/>
    <path id="Caminho_140" data-name="Caminho 140" d="M8,27.119V14.375A.375.375,0,0,1,8.375,14H22.619a.375.375,0,0,1,.375.375V27.119" transform="translate(4.972 6.616)" fill="none" stroke="#000" stroke-linecap="round" stroke-linejoin="round" stroke-width="3"/>
    <line id="Linha_125" data-name="Linha 125" y1="13.119" transform="translate(20.469 20.579)" fill="none" stroke="#000" stroke-linecap="round" stroke-linejoin="round" stroke-width="3"/>
  </g>
</svg>
