<svg xmlns="http://www.w3.org/2000/svg" width="32.449" height="31" viewBox="0 0 32.449 31">
  <g id="ic-shopping-bag" transform="translate(1.264 1.25)">
    <path id="Caminho_330" data-name="Caminho 330" d="M29.348,29.167H5.693a3.167,3.167,0,0,1-3.072-3.9L6.437,9.438A3.167,3.167,0,0,1,9.461,7H25.58A3.167,3.167,0,0,1,28.6,9.438l3.768,15.833a3.167,3.167,0,0,1-3.024,3.9Z" transform="translate(-2.536 -0.667)" fill="none" stroke="#000" stroke-linecap="round" stroke-linejoin="round" stroke-width="2.5"/>
    <path id="Caminho_331" data-name="Caminho 331" d="M7.56,9.333,8.985,6.452A6.333,6.333,0,0,1,14.59,3h0a6.333,6.333,0,0,1,5.6,3.452L21.62,9.333" transform="translate(0.394 -3)" fill="none" stroke="#000" stroke-linecap="round" stroke-linejoin="round" stroke-width="2.5"/>
  </g>
</svg>
