<svg xmlns="http://www.w3.org/2000/svg" width="45" height="45" viewBox="0 0 45 45">
  <g id="Icons_Contact_ic-contact-chat" data-name="Icons / Contact / ic-contact-chat" transform="translate(0)">
    <rect id="Retângulo_184" data-name="Retângulo 184" width="45" height="45" transform="translate(0)" fill="none"/>
    <g id="ic-contact-chat" transform="translate(3.748 5.623)">
      <path id="Caminho_76" data-name="Caminho 76" d="M5.748,3H24.49a3.748,3.748,0,0,1,3.748,3.748V17.994a3.748,3.748,0,0,1-3.748,3.748H18.868l-5.623,5.623L7.623,21.742H5.748A3.748,3.748,0,0,1,2,17.994V6.748A3.748,3.748,0,0,1,5.748,3Z" transform="translate(-2 -3)" fill="none" stroke="#000" stroke-linecap="round" stroke-linejoin="round" stroke-width="3"/>
      <path id="Caminho_77" data-name="Caminho 77" d="M22.994,8h7.5a3.748,3.748,0,0,1,3.748,3.748V22.994a3.748,3.748,0,0,1-3.748,3.748H26.742l-3.748,5.623-5.623-5.623H11.748A3.748,3.748,0,0,1,8,22.994H8" transform="translate(3.245 1.371)" fill="none" stroke="#000" stroke-linecap="round" stroke-linejoin="round" stroke-width="3"/>
    </g>
  </g>
</svg>
