<svg xmlns="http://www.w3.org/2000/svg" width="45" height="45" viewBox="0 0 45 45">
  <g id="Icons_Ecommerce_ic-ecommerce-money" data-name="Icons / Ecommerce / ic-ecommerce-money" transform="translate(0)">
    <rect id="Ret창ngulo_429" data-name="Ret창ngulo 429" width="45" height="45" transform="translate(0)" fill="none"/>
    <g id="ic-ecommerce-money" transform="translate(3.748 11.545)">
      <rect id="Ret창ngulo_50" data-name="Ret창ngulo 50" width="37.484" height="21.872" rx="2" fill="none" stroke="#000" stroke-linecap="round" stroke-linejoin="round" stroke-width="3.5"/>
      <path id="Caminho_142" data-name="Caminho 142" d="M9.5,6.16c0,4.142-3.355,8.415-7.5,8.415H2" transform="translate(-2 -6.16)" fill="none" stroke="#000" stroke-linecap="round" stroke-linejoin="round" stroke-width="3.5"/>
      <path id="Caminho_143" data-name="Caminho 143" d="M2,13.27H2c4.142,0,7.5,4.423,7.5,8.565" transform="translate(-2 0.056)" fill="none" stroke="#000" stroke-linecap="round" stroke-linejoin="round" stroke-width="3.5"/>
      <path id="Caminho_144" data-name="Caminho 144" d="M18,21.835c0-4.142,3.355-8.565,7.5-8.565h0" transform="translate(11.987 0.056)" fill="none" stroke="#000" stroke-linecap="round" stroke-linejoin="round" stroke-width="3.5"/>
      <path id="Caminho_145" data-name="Caminho 145" d="M25.5,14.575h0c-4.142,0-7.5-4.273-7.5-8.415v.918" transform="translate(11.987 -6.16)" fill="none" stroke="#000" stroke-linecap="round" stroke-linejoin="round" stroke-width="3.5"/>
      <circle id="Elipse_31" data-name="Elipse 31" cx="3.748" cy="3.748" r="3.748" transform="translate(14.994 7.197)" fill="none" stroke="#000" stroke-linecap="round" stroke-linejoin="round" stroke-width="3.5"/>
    </g>
  </g>
</svg>
